HIERARCHY
ROOT Bip001_Pelvis
{
  OFFSET 34.4345 95.6767 -26.8758
  CHANNELS 6 Xposition Yposition Zposition Zrotation Xrotation Yrotation
  JOINT Bip001_Spine
  {
    OFFSET 1.4188e-005 10.2191 -0.0116013
    CHANNELS 3 Zrotation Xrotation Yrotation
    JOINT Bip001_L_Thigh
    {
      OFFSET 11.0458 -10.2192 0.0116197
      CHANNELS 3 Zrotation Xrotation Yrotation
      JOINT Bip001_L_Calf
      {
        OFFSET -0.707118 -44.0221 0.360014
        CHANNELS 3 Zrotation Xrotation Yrotation
        JOINT Bip001_L_Foot
        {
          OFFSET -0.651902 -40.5938 -3.56146
          CHANNELS 3 Zrotation Xrotation Yrotation
          JOINT Bip001_L_Toe0
          {
            OFFSET 0.0530839 -10.2181 13.1504
            CHANNELS 3 Zrotation Xrotation Yrotation
            End Site
            {
              OFFSET -1.02532e-005 0 7.55606
            }
          }
        }
      }
    }
    JOINT Bip001_R_Thigh
    {
      OFFSET -11.0458 -10.2191 0.0115893
      CHANNELS 3 Zrotation Xrotation Yrotation
      JOINT Bip001_R_Calf
      {
        OFFSET 0.706994 -44.0221 0.35984
        CHANNELS 3 Zrotation Xrotation Yrotation
        JOINT Bip001_R_Foot
        {
          OFFSET 0.651786 -40.5938 -3.5613
          CHANNELS 3 Zrotation Xrotation Yrotation
          JOINT Bip001_R_Toe0
          {
            OFFSET -0.0531479 -10.2181 13.1504
            CHANNELS 3 Zrotation Xrotation Yrotation
            End Site
            {
              OFFSET -1.02894e-005 0 7.55606
            }
          }
        }
      }
    }
    JOINT Bip001_Spine1
    {
      OFFSET 1.87041e-005 14.5736 1.08638
      CHANNELS 3 Zrotation Xrotation Yrotation
      JOINT Bip001_Spine2
      {
        OFFSET 2.24614e-005 14.5058 -1.69078
        CHANNELS 3 Zrotation Xrotation Yrotation
        JOINT Bip001_Neck
        {
          OFFSET 2.20278e-005 15.3945 -0.489414
          CHANNELS 3 Zrotation Xrotation Yrotation
          JOINT Bip001_L_Clavicle
          {
            OFFSET 6.06036 -0.000579998 0.00836775
            CHANNELS 3 Zrotation Xrotation Yrotation
            JOINT Bip001_L_UpperArm
            {
              OFFSET 11.5509 -0.0600302 0.00193952
              CHANNELS 3 Zrotation Xrotation Yrotation
              JOINT Bip001_L_Forearm
              {
                OFFSET 25.9523 0.0806089 -2.15551
                CHANNELS 3 Zrotation Xrotation Yrotation
                JOINT Bip001_L_Hand
                {
                  OFFSET 32.2475 0.153767 1.63968
                  CHANNELS 3 Zrotation Xrotation Yrotation
                  JOINT Bip001_L_Finger0
                  {
                    OFFSET 6.04639 -2.20976 5.90322
                    CHANNELS 3 Zrotation Xrotation Yrotation
                    End Site
                    {
                      OFFSET 4.22375 -1.43895 0.606485
                    }
                  }
                  JOINT Bip001_L_Finger1
                  {
                    OFFSET 11.0826 -0.704819 -0.198153
                    CHANNELS 3 Zrotation Xrotation Yrotation
                    End Site
                    {
                      OFFSET 6.20027 -0.397518 -0.0787166
                    }
                  }
                }
              }
            }
          }
          JOINT Bip001_R_Clavicle
          {
            OFFSET -6.06037 -0.000563197 0.00835105
            CHANNELS 3 Zrotation Xrotation Yrotation
            JOINT Bip001_R_UpperArm
            {
              OFFSET -11.5509 -0.0599978 0.00190698
              CHANNELS 3 Zrotation Xrotation Yrotation
              JOINT Bip001_R_Forearm
              {
                OFFSET -25.9523 0.0806822 -2.15589
                CHANNELS 3 Zrotation Xrotation Yrotation
                JOINT Bip001_R_Hand
                {
                  OFFSET -32.2475 0.153859 1.63989
                  CHANNELS 3 Zrotation Xrotation Yrotation
                  JOINT Bip001_R_Finger0
                  {
                    OFFSET -6.04641 -2.20976 5.90317
                    CHANNELS 3 Zrotation Xrotation Yrotation
                    End Site
                    {
                      OFFSET -4.22376 -1.43895 0.60647
                    }
                  }
                  JOINT Bip001_R_Finger1
                  {
                    OFFSET -11.0826 -0.704794 -0.198182
                    CHANNELS 3 Zrotation Xrotation Yrotation
                    End Site
                    {
                      OFFSET -6.20028 -0.397504 -0.0787333
                    }
                  }
                }
              }
            }
          }
          JOINT Bip001_Head
          {
            OFFSET 1.09673e-005 11.2744 2.05948
            CHANNELS 3 Zrotation Xrotation Yrotation
            End Site
            {
              OFFSET 2.89576e-005 20.8808 -2.77728e-005
            }
          }
        }
      }
    }
  }
}
MOTION
Frames:	9
Frame Time:	0.04
36.2556 90.2858 -29.723 -7.73197 -8.27136 0.158301 0.662674 3.22502 -0.362246 16.6361 -11.3361 14.0502 -2.34095 43.9672 -3.56512 6.50102 -22.5586 1.00004 1.21996 -4.60328 -0.422434 -1.41795 -6.8733 1.10482 5.21787 32.3034 -0.24509 -12.762 -14.2621 -8.6693 4.49536 -14.1187 4.73171 1.33906 6.44561 -0.763734 1.34523 6.44565 -0.763394 5.15839 -7.79025 1.69511 -24.5301 11.8345 -10.4097 -48.0958 42.9196 7.55098 11.8165 -2.8325 -23.6059 7.124 1.0563 -3.58432 0 0 -1.59028e-015 -0 -3.18056e-015 -0 10.8731 13.1212 19.0563 65.2717 -53.535 49.518 -47.75 1.0277 91.1277 -32.8568 -13.7548 5.50196 1.10348e-031 -3.18055e-015 1.98785e-015 6.62086e-032 -3.18056e-015 1.19271e-015 -6.58861 -2.74371 4.15341 
36.6023 90.1066 -29.9121 -8.09359 -8.39087 1.21134 0.534393 3.32087 0.243371 17.0941 -12.4273 13.6209 -2.27205 44.9749 -4.18846 7.08168 -22.8803 1.11521 1.5285 -4.75245 -0.8461 -1.55349 -7.05766 0.447298 6.53616 32.6207 -0.186373 -13.2714 -13.8375 -10.0266 4.49244 -14.1049 4.73716 1.05789 6.64386 0.456805 1.05751 6.64388 0.456786 4.77863 -9.25451 -0.313158 -24.8565 12.3922 -8.03698 -45.6739 43.8281 5.79032 12.1834 -1.38709 -22.9458 6.23554 1.21441 -3.5608 -3.18055e-015 -6.36111e-015 -0 -3.18055e-015 -9.54167e-015 1.59028e-015 7.30763 14.7972 24.3742 58.1971 -45.468 54.7718 -46.9051 2.36395 76.2366 -32.4743 -13.4559 6.14713 -0 0 3.97569e-016 7.95139e-016 3.18056e-015 -3.97569e-016 -6.38677 -1.50374 2.08621 
36.9595 90.4014 -29.9755 -7.92839 -8.50341 2.13321 0.346307 3.41518 0.900612 17.0394 -12.4845 12.8841 -2.92246 44.1279 -4.17892 7.02251 -22.7302 1.10355 1.77257 -4.50431 -1.25821 -1.58814 -6.39214 -1.02114 5.85728 31.4542 -0.221191 -12.8258 -13.1303 -9.52196 4.55586 -14.2395 4.73425 0.64006 6.83493 1.78592 0.640301 6.83517 1.7856 4.17276 -9.92655 -2.32092 -24.9401 12.3329 -6.35519 -44.232 43.1507 4.72063 12.6674 -0.459936 -22.5665 6.83136 1.00996 -3.52503 -6.36111e-015 -6.36111e-015 1.59028e-015 -6.36111e-015 -6.36111e-015 -0 3.48457 14.8991 28.3724 40.9604 -35.5453 53.7332 -47.3184 0.0378201 53.1391 -25.5803 -14.1288 7.86244 8.82781e-032 6.36111e-015 -7.95139e-016 1.59028e-015 6.36111e-015 -7.95139e-016 -6.41712 -1.09653 0.0337058 
37.0595 91.0913 -30.0484 -7.65854 -7.73417 4.33941 0.119278 3.25293 1.2406 16.8918 -12.9863 13.0436 -2.20706 42.0627 -6.57097 6.51472 -21.8367 0.972305 1.82136 -4.0642 -1.52608 -1.2283 -5.35808 -1.21858 5.84563 28.3287 -0.217111 -12.5304 -11.2959 -10.9211 4.59389 -14.2431 4.60144 0.175008 6.50798 2.46993 0.171063 6.50788 2.47527 4.71923 -9.72498 -4.31302 -25.0688 11.343 -5.03151 -44.6206 41.4842 4.9698 12.4135 -1.50824 -23.1959 7.58135 1.29533 -3.05439 -3.18055e-015 1.59028e-014 -4.77083e-015 -3.18055e-015 1.27222e-014 -4.77083e-015 -0.295766 13.7055 29.7338 48.1815 -34.9185 64.6306 -58.5045 8.80823 47.5637 -24.1722 -14.3741 2.66978 -1.59028e-015 6.36111e-015 -7.95139e-016 8.82782e-032 3.18056e-015 -1.59028e-015 -6.54273 -0.816211 -1.72896 
37.2334 92.0172 -29.7644 -6.57639 -7.29218 8.28758 -0.269776 3.02087 0.931938 15.4441 -12.5956 13.1633 0.00293266 38.5442 -10.6713 5.67109 -20.2845 0.774065 1.95738 -3.74819 -1.92855 -1.1551 -2.65789 -2.33248 5.2123 23.8594 -0.153251 -12.2007 -9.33832 -12.248 4.53861 -14.0713 4.49809 -0.581577 6.03789 1.87623 -0.589901 6.03784 1.87909 6.9477 -7.02475 -6.16615 -26.1982 7.70312 -4.2008 -46.4458 39.5032 7.29985 11.7239 -1.81608 -24.2911 9.14207 1.2054 -3.09363 3.18055e-015 0 -3.18055e-015 3.18055e-015 0 -3.18055e-015 2.22575 12.1351 29.7075 84.8526 -40.2487 88.818 -81.4667 9.88585 78.2362 -8.66925 -27.4083 -11.4906 -3.18055e-015 -3.18055e-015 -4.77083e-015 -6.36111e-015 -6.36111e-015 -1.59028e-015 -7.19527 -1.43067 -2.79084 
37.7447 92.8298 -29.5847 -4.96378 -7.21273 11.149 -0.421212 2.79229 0.504596 12.6167 -11.1422 10.3271 0.281003 34.5546 -10.3134 5.89693 -17.8986 0.677423 2.26826 -4.09484 -2.21476 -1.53957 0.0258142 -3.09545 3.38262 20.116 -0.297755 -11.4125 -7.52605 -12.5209 4.59056 -14.1397 4.45977 -0.873714 5.58036 1.03793 -0.864694 5.58041 1.03448 8.81973 -4.35725 -7.68729 -26.7383 4.43206 -4.16602 -50.7852 39.3241 10.5003 10.9438 -1.72511 -24.4315 9.34306 1.27545 -3.04415 3.18055e-015 0 1.59028e-015 4.77083e-015 -6.36111e-015 -0 3.22476 9.84675 27.9431 84.3145 -44.7429 87.9978 -74.2642 6.03037 82.7284 -12.5838 -20.7133 -7.20649 -1.59028e-015 0 -1.59028e-015 -1.59028e-015 3.18056e-015 -7.95139e-016 -8.97617 -1.21052 -3.26708 
38.2671 93.2605 -29.5563 -4.1206 -7.46153 11.239 -0.260569 2.67526 0.330583 10.4456 -9.429 11.439 2.33055 31.943 -12.2589 6.40629 -16.3163 0.632287 2.27713 -4.56537 -2.13315 -2.10357 1.65049 -3.28 1.97157 17.9244 -0.13259 -10.55 -6.6291 -11.8926 4.52206 -13.994 4.44322 -0.537425 5.34892 0.674243 -0.537722 5.34893 0.674361 8.30685 -4.81097 -7.99233 -26.9966 4.78872 -3.72088 -54.5425 41.9077 14.5884 12.4684 0.424912 -24.9296 5.50427 1.16446 -3.11591 -3.18055e-015 0 -0 -6.36111e-015 0 -1.59028e-015 1.79177 9.11621 25.6401 80.9665 -49.9835 81.5943 -61.8838 2.95229 87.3927 -14.2127 -14.4112 -3.55018 0 0 -0 7.95139e-016 3.18056e-015 -1.19271e-015 -9.97619 0.750075 -3.35403 
38.649 93.8434 -29.7396 -3.57055 -6.95393 9.88081 -0.16788 2.61635 0.0582169 9.28844 -7.84786 10.8406 1.09493 28.7263 -9.68917 5.8042 -15.1432 0.51686 2.06791 -4.36791 -2.01962 -2.87664 2.50498 -3.16194 0.935359 14.746 0.297682 -9.60605 -5.35984 -10.4449 4.45216 -13.8287 4.4019 -0.333458 5.23253 0.12329 -0.336169 5.23253 0.123569 5.87048 -7.91399 -6.7431 -26.1295 7.94068 -1.39059 -56.9759 46.8797 17.3583 15.2251 2.57801 -24.9009 1.21866 1.00111 -3.60167 0 0 -0 1.59028e-015 3.18056e-015 -0 3.52897 12.3404 24.4329 74.2989 -55.8379 74.1281 -53.6123 0.691627 90.6567 -7.93644 -16.5827 0.757287 -1.59028e-015 0 -0 -0 -3.18056e-015 -0 -8.56719 4.12909 -2.90544 
38.9277 94.4453 -29.851 -2.77109 -6.43399 8.34676 -0.194074 2.5643 -0.0644653 8.11865 -5.78067 12.2295 0.631005 24.5723 -9.30562 5.22704 -13.5964 0.397334 1.94297 -4.21791 -1.9626 -3.95406 3.36558 -3.88909 0.21658 11.5428 0.458166 -8.46725 -4.31083 -8.14654 4.33364 -13.5929 4.41145 -0.390963 5.12897 -0.121487 -0.389651 5.12901 -0.120665 5.17122 -9.75836 -6.31824 -25.5095 9.64952 -0.0832183 -60.2424 52.0136 19.3673 16.7379 3.67992 -23.2802 0.310726 0.806707 -4.34917 3.18055e-015 3.18055e-015 -0 1.59028e-015 6.36111e-015 -0 4.62322 14.3585 23.6833 65.9047 -60.8907 61.5254 -46.4741 -1.78245 95.7467 -0.853147 -19.4137 1.35881 6.36111e-015 6.36111e-015 -3.18055e-015 3.18055e-015 3.18056e-015 -1.59028e-015 -8.04254 5.63591 -2.71589 
